<svg height="512" viewBox="0 0 42 60" width="512" xmlns="http://www.w3.org/2000/svg"><g id="Page-1" fill="none" fill-rule="evenodd"><g id="008---Bot-at-Laptop" fill-rule="nonzero" transform="translate(-1 -1)"><path id="Shape" d="m37.29 37c2.94-2.86 4.71-7.12 4.71-13.18 0-12.73-8.95-21.82-20-21.82s-20 9.09-20 21.82c0 6.06 1.77 10.32 4.71 13.18z" fill="#f5f5f5"/><path id="Shape" d="m22 2c-.506 0-1 .039-1.5.077 10.346.784 18.5 9.596 18.5 21.743 0 6.06-1.77 10.32-4.71 13.18h3c2.94-2.86 4.71-7.12 4.71-13.18 0-12.73-8.95-21.82-20-21.82z" fill="#cfd8dc"/><rect id="Rectangle-path" fill="#607d8b" height="18" rx="9" width="32" x="6" y="15"/><path id="Shape" d="m29 15h-3c4.9705627 0 9 4.0294373 9 9s-4.0294373 9-9 9h3c4.9705627 0 9-4.0294373 9-9s-4.0294373-9-9-9z" fill="#37474f"/><circle id="Oval" cx="5" cy="4" fill="#02a9f4" r="2"/><circle id="Oval" cx="39" cy="4" fill="#02a9f4" r="2"/><circle id="Oval" cx="13" cy="23" fill="#00bcd4" r="2"/><circle id="Oval" cx="31" cy="23" fill="#00bcd4" r="2"/><path id="Shape" d="m37 56h-30l-2.635-16.688c-.09126255-.5778539.0750562-1.1666952.45514569-1.6114153s.93583811-.7007268 1.52085431-.7005847h31.318c.5850162-.0001421 1.1407648.2558646 1.5208543.7005847s.5464082 1.0335614.4551457 1.6114153z" fill="#9e9e9e"/><path id="Shape" d="m37.659 37h-3c.5850162-.0001421 1.1407648.2558646 1.5208543.7005847s.5464082 1.0335614.4551457 1.6114153l-2.635 16.688h3l2.635-16.688c.0912625-.5778539-.0750562-1.1666952-.4551457-1.6114153s-.9358381-.7007268-1.5208543-.7005847z" fill="#707070"/><path id="Shape" d="m7 56h30v3c0 .5522847-.4477153 1-1 1h-28c-.55228475 0-1-.4477153-1-1z" fill="#7f8e94"/><path id="Shape" d="m34 56v3c0 .5522847-.4477153 1-1 1h3c.5522847 0 1-.4477153 1-1v-3z" fill="#545c60"/><circle id="Oval" cx="22" cy="47" fill="#f5f5f5" r="3"/><g fill="#000"><path id="Shape" d="m1 23.82c0 5.232 1.289 9.462 3.834 12.6-.29114434.1635533-.55250293.3752098-.773.626-.57154373.6662831-.82130197 1.5501274-.683 2.417l2.622 16.612v2.925c0 1.1045695.8954305 2 2 2h28c1.1045695 0 2-.8954305 2-2v-2.925l2.623-16.607c.1374746-.8669892-.1125895-1.7506221-.684-2.417-.2204971-.2507902-.4818557-.4624467-.773-.626 2.545-3.143 3.834-7.373 3.834-12.605.0411491-4.2204365-.9911738-8.382074-3-12.094v-4.91c1.3775467-.4870363 2.2038721-1.89566623 1.9567957-3.33573306s-1.4956868-2.49269406-2.9567957-2.49269406-2.7097193 1.05262723-2.9567957 2.49269406.579249 2.84869676 1.9567957 3.33573306v1.909c-3.8760127-4.88049408-9.7676091-7.7250482-16-7.7250482s-12.12398731 2.84455412-16 7.7250482v-1.909c1.37754669-.4870363 2.20387209-1.89566623 1.95679568-3.33573306s-1.49568678-2.49269406-2.95679568-2.49269406-2.70971927 1.05262723-2.95679568 2.49269406.57924899 2.84869676 1.95679568 3.33573306v4.91c-2.00882621 3.711926-3.04114907 7.8735635-3 12.094zm38-20.82c.5522847 0 1 .44771525 1 1s-.4477153 1-1 1-1-.44771525-1-1 .4477153-1 1-1zm-34 0c.55228475 0 1 .44771525 1 1s-.44771525 1-1 1-1-.44771525-1-1 .44771525-1 1-1zm3 56v-2h28v2zm28.146-4h-28.292l-2.5-15.844c-.04560411-.2887544.03742785-.5830054.22724798-.8053276.18982012-.2223223.46741862-.3504511.75975202-.3506724h31.318c.2925081-.0000711.5703824.1279323.7604272.3502924.1900447.22236.2732041.5167807.2275728.8057076zm-14.146-52c10.832 0 19 8.951 19 20.82 0 5.256-1.4 9.343-4.149 12.18h-29.7c-2.751-2.837-4.151-6.924-4.151-12.18 0-11.869 8.168-20.82 19-20.82z"/><path id="Shape" d="m15 34h14c5.5228475 0 10-4.4771525 10-10s-4.4771525-10-10-10h-14c-5.52284744.0000001-9.99999985 4.4771526-9.99999985 10s4.47715241 9.9999999 9.99999985 10zm0-18h14c4.418278 0 8 3.581722 8 8s-3.581722 8-8 8h-14c-4.418278 0-8-3.581722-8-8s3.581722-8 8-8z"/><path id="Shape" d="m19 12h6c.5522847 0 1-.4477153 1-1s-.4477153-1-1-1h-6c-.5522847 0-1 .4477153-1 1s.4477153 1 1 1z"/><path id="Shape" d="m21 9h2c.5522847 0 1-.44771525 1-1s-.4477153-1-1-1h-2c-.5522847 0-1 .44771525-1 1s.4477153 1 1 1z"/><path id="Shape" d="m13 26c1.2133867 0 2.3072956-.7309265 2.7716386-1.8519497s.2076757-2.4113767-.6503183-3.2693706c-.8579939-.857994-2.1483474-1.1146613-3.2693706-.6503183s-1.8519497 1.5582519-1.8519497 2.7716386c0 1.6568542 1.3431458 3 3 3zm0-4c.5522847 0 1 .4477153 1 1s-.4477153 1-1 1-1-.4477153-1-1 .4477153-1 1-1z"/><path id="Shape" d="m31 26c1.2133867 0 2.3072956-.7309265 2.7716386-1.8519497s.2076757-2.4113767-.6503183-3.2693706c-.8579939-.857994-2.1483474-1.1146613-3.2693706-.6503183s-1.8519497 1.5582519-1.8519497 2.7716386c0 1.6568542 1.3431458 3 3 3zm0-4c.5522847 0 1 .4477153 1 1s-.4477153 1-1 1-1-.4477153-1-1 .4477153-1 1-1z"/><path id="Shape" d="m22 30c1.35546.0583036 2.6818413-.4043376 3.707-1.293.3865882-.3856403.3892686-1.0110603.006-1.4-.3834152-.390809-1.0088181-.4036902-1.408-.029-.6570317.5090244-1.4749835.7652332-2.305.722-.8276815.0432642-1.643525-.2110662-2.3-.717-.3985064-.3506401-1.0015362-.3288293-1.37367.049684-.3721338.3785132-.3836925.9818266-.02633 1.374316 1.023374.8869696 2.346923 1.3494963 3.7 1.293z"/><path id="Shape" d="m22 43c-2.209139 0-4 1.790861-4 4s1.790861 4 4 4 4-1.790861 4-4-1.790861-4-4-4zm0 6c-1.1045695 0-2-.8954305-2-2s.8954305-2 2-2 2 .8954305 2 2-.8954305 2-2 2z"/></g></g></g></svg>